<svg width="200" height="200" viewBox="0 0 200 200" fill="none" xmlns="http://www.w3.org/2000/svg">
<path d="M91.0714 57.1429H66.0714C61.1403 57.1429 57.1429 61.1403 57.1429 66.0714V91.0714C57.1429 96.0025 61.1403 100 66.0714 100H91.0714C96.0025 100 100 96.0025 100 91.0714V66.0714C100 61.1403 96.0025 57.1429 91.0714 57.1429Z" fill="#3D3B8E"/>
<path d="M141.071 57.1429H116.071C111.14 57.1429 107.143 61.1403 107.143 66.0714V91.0714C107.143 96.0025 111.14 100 116.071 100H141.071C146.003 100 150 96.0025 150 91.0714V66.0714C150 61.1403 146.003 57.1429 141.071 57.1429Z" fill="#3D3B8E"/>
<path d="M91.0714 107.143H66.0714C61.1403 107.143 57.1429 111.14 57.1429 116.071V141.071C57.1429 146.003 61.1403 150 66.0714 150H91.0714C96.0025 150 100 146.003 100 141.071V116.071C100 111.14 96.0025 107.143 91.0714 107.143Z" fill="#3D3B8E"/>
<path opacity="0.65" d="M141.071 107.143H116.071C111.14 107.143 107.143 111.14 107.143 116.071V141.071C107.143 146.003 111.14 150 116.071 150H141.071C146.003 150 150 146.003 150 141.071V116.071C150 111.14 146.003 107.143 141.071 107.143Z" fill="#7F77DD"/>
<path opacity="0.22" d="M35.7143 57.1429H14.2857C10.3408 57.1429 7.14286 60.3408 7.14286 64.2857V85.7143C7.14286 89.6592 10.3408 92.8571 14.2857 92.8571H35.7143C39.6592 92.8571 42.8571 89.6592 42.8571 85.7143V64.2857C42.8571 60.3408 39.6592 57.1429 35.7143 57.1429Z" fill="#3D3B8E"/>
<path opacity="0.22" d="M185.714 57.1429H164.286C160.341 57.1429 157.143 60.3408 157.143 64.2857V85.7143C157.143 89.6592 160.341 92.8571 164.286 92.8571H185.714C189.659 92.8571 192.857 89.6592 192.857 85.7143V64.2857C192.857 60.3408 189.659 57.1429 185.714 57.1429Z" fill="#3D3B8E"/>
<path opacity="0.15" d="M35.7143 107.143H14.2857C10.3408 107.143 7.14286 110.341 7.14286 114.286V135.714C7.14286 139.659 10.3408 142.857 14.2857 142.857H35.7143C39.6592 142.857 42.8571 139.659 42.8571 135.714V114.286C42.8571 110.341 39.6592 107.143 35.7143 107.143Z" fill="#7F77DD"/>
<path opacity="0.15" d="M185.714 107.143H164.286C160.341 107.143 157.143 110.341 157.143 114.286V135.714C157.143 139.659 160.341 142.857 164.286 142.857H185.714C189.659 142.857 192.857 139.659 192.857 135.714V114.286C192.857 110.341 189.659 107.143 185.714 107.143Z" fill="#7F77DD"/>
<path opacity="0.15" d="M85.7143 7.14286H64.2857C60.3408 7.14286 57.1429 10.3408 57.1429 14.2857V35.7143C57.1429 39.6592 60.3408 42.8571 64.2857 42.8571H85.7143C89.6592 42.8571 92.8571 39.6592 92.8571 35.7143V14.2857C92.8571 10.3408 89.6592 7.14286 85.7143 7.14286Z" fill="#3D3B8E"/>
<path opacity="0.1" d="M135.714 7.14286H114.286C110.341 7.14286 107.143 10.3408 107.143 14.2857V35.7143C107.143 39.6592 110.341 42.8571 114.286 42.8571H135.714C139.659 42.8571 142.857 39.6592 142.857 35.7143V14.2857C142.857 10.3408 139.659 7.14286 135.714 7.14286Z" fill="#7F77DD"/>
<path opacity="0.15" d="M85.7143 157.143H64.2857C60.3408 157.143 57.1429 160.341 57.1429 164.286V185.714C57.1429 189.659 60.3408 192.857 64.2857 192.857H85.7143C89.6592 192.857 92.8571 189.659 92.8571 185.714V164.286C92.8571 160.341 89.6592 157.143 85.7143 157.143Z" fill="#7F77DD"/>
<path opacity="0.1" d="M135.714 157.143H114.286C110.341 157.143 107.143 160.341 107.143 164.286V185.714C107.143 189.659 110.341 192.857 114.286 192.857H135.714C139.659 192.857 142.857 189.659 142.857 185.714V164.286C142.857 160.341 139.659 157.143 135.714 157.143Z" fill="#3D3B8E"/>
</svg>
