<svg width="200" height="200" viewBox="0 0 200 200" fill="none" xmlns="http://www.w3.org/2000/svg">
<path d="M91.0714 57.1429H66.0714C61.1403 57.1429 57.1429 61.1403 57.1429 66.0715V91.0715C57.1429 96.0026 61.1403 100 66.0714 100H91.0714C96.0025 100 100 96.0026 100 91.0715V66.0715C100 61.1403 96.0025 57.1429 91.0714 57.1429Z" fill="#EEEDFE"/>
<path d="M141.929 107H116.929C111.997 107 108 110.997 108 115.929V140.929C108 145.86 111.997 149.857 116.929 149.857H141.929C146.86 149.857 150.857 145.86 150.857 140.929V115.929C150.857 110.997 146.86 107 141.929 107Z" fill="#EEEDFE"/>
<path d="M91.0714 107.143H66.0714C61.1403 107.143 57.1429 111.14 57.1429 116.071V141.071C57.1429 146.003 61.1403 150 66.0714 150H91.0714C96.0025 150 100 146.003 100 141.071V116.071C100 111.14 96.0025 107.143 91.0714 107.143Z" fill="#EEEDFE"/>
<path opacity="0.22" d="M35.7143 57.1429H14.2857C10.3408 57.1429 7.14285 60.3408 7.14285 64.2857V85.7143C7.14285 89.6592 10.3408 92.8572 14.2857 92.8572H35.7143C39.6592 92.8572 42.8571 89.6592 42.8571 85.7143V64.2857C42.8571 60.3408 39.6592 57.1429 35.7143 57.1429Z" fill="#EEEDFE" fill-opacity="0.29"/>
<path opacity="0.22" d="M185.714 57.1429H164.286C160.341 57.1429 157.143 60.3408 157.143 64.2857V85.7143C157.143 89.6592 160.341 92.8572 164.286 92.8572H185.714C189.659 92.8572 192.857 89.6592 192.857 85.7143V64.2857C192.857 60.3408 189.659 57.1429 185.714 57.1429Z" fill="#EEEDFE" fill-opacity="0.29"/>
<path opacity="0.15" d="M35.7143 107.143H14.2857C10.3408 107.143 7.14285 110.341 7.14285 114.286V135.714C7.14285 139.659 10.3408 142.857 14.2857 142.857H35.7143C39.6592 142.857 42.8571 139.659 42.8571 135.714V114.286C42.8571 110.341 39.6592 107.143 35.7143 107.143Z" fill="#EEEDFE"/>
<path opacity="0.15" d="M185.714 107.143H164.286C160.341 107.143 157.143 110.341 157.143 114.286V135.714C157.143 139.659 160.341 142.857 164.286 142.857H185.714C189.659 142.857 192.857 139.659 192.857 135.714V114.286C192.857 110.341 189.659 107.143 185.714 107.143Z" fill="#EEEDFE"/>
<path opacity="0.15" d="M85.7143 7.14288H64.2857C60.3408 7.14288 57.1429 10.3408 57.1429 14.2857V35.7143C57.1429 39.6592 60.3408 42.8572 64.2857 42.8572H85.7143C89.6592 42.8572 92.8571 39.6592 92.8571 35.7143V14.2857C92.8571 10.3408 89.6592 7.14288 85.7143 7.14288Z" fill="#EEEDFE" fill-opacity="0.29"/>
<path opacity="0.1" d="M135.714 7.14288H114.286C110.341 7.14288 107.143 10.3408 107.143 14.2857V35.7143C107.143 39.6592 110.341 42.8572 114.286 42.8572H135.714C139.659 42.8572 142.857 39.6592 142.857 35.7143V14.2857C142.857 10.3408 139.659 7.14288 135.714 7.14288Z" fill="#EEEDFE" fill-opacity="0.6"/>
<path opacity="0.15" d="M85.7143 157.143H64.2857C60.3408 157.143 57.1429 160.341 57.1429 164.286V185.714C57.1429 189.659 60.3408 192.857 64.2857 192.857H85.7143C89.6592 192.857 92.8571 189.659 92.8571 185.714V164.286C92.8571 160.341 89.6592 157.143 85.7143 157.143Z" fill="#EEEDFE"/>
<path opacity="0.1" d="M135.714 157.143H114.286C110.341 157.143 107.143 160.341 107.143 164.286V185.714C107.143 189.659 110.341 192.857 114.286 192.857H135.714C139.659 192.857 142.857 189.659 142.857 185.714V164.286C142.857 160.341 139.659 157.143 135.714 157.143Z" fill="#ABABAD"/>
<circle opacity="0.85" cx="128.43" cy="78.43" r="21.43" fill="#7F77DD"/>
</svg>
